<svg width="975" height="785" xmlns="http://www.w3.org/2000/svg" xmlns:xlink="http://www.w3.org/1999/xlink" version="1.1" baseProfile="full" viewBox="0 0 975 785">
<rect width="975" height="785" x="0" y="0" fill="none"></rect>
<path d="M67.2793 741.5L936 741.5" fill="none" stroke="#E0E6F1" class="zr0-cls-0"></path>
<path d="M67.2793 628.5L936 628.5" fill="none" stroke="#E0E6F1" class="zr0-cls-0"></path>
<path d="M67.2793 514.5L936 514.5" fill="none" stroke="#E0E6F1" class="zr0-cls-0"></path>
<path d="M67.2793 400.5L936 400.5" fill="none" stroke="#E0E6F1" class="zr0-cls-0"></path>
<path d="M67.2793 287.5L936 287.5" fill="none" stroke="#E0E6F1" class="zr0-cls-0"></path>
<path d="M67.2793 173.5L936 173.5" fill="none" stroke="#E0E6F1" class="zr0-cls-0"></path>
<path d="M67.2793 60.5L936 60.5" fill="none" stroke="#E0E6F1" class="zr0-cls-0"></path>
<path d="M67.2793 741.5L936 741.5" fill="none" stroke="#6E7079" stroke-linecap="round" class="zr0-cls-0"></path>
<path d="M67.5 741.45L67.5 746.45" fill="none" stroke="#6E7079" class="zr0-cls-0"></path>
<path d="M212.5 741.45L212.5 746.45" fill="none" stroke="#6E7079" class="zr0-cls-0"></path>
<path d="M357.5 741.45L357.5 746.45" fill="none" stroke="#6E7079" class="zr0-cls-0"></path>
<path d="M501.5 741.45L501.5 746.45" fill="none" stroke="#6E7079" class="zr0-cls-0"></path>
<path d="M646.5 741.45L646.5 746.45" fill="none" stroke="#6E7079" class="zr0-cls-0"></path>
<path d="M791.5 741.45L791.5 746.45" fill="none" stroke="#6E7079" class="zr0-cls-0"></path>
<path d="M936.5 741.45L936.5 746.45" fill="none" stroke="#6E7079" class="zr0-cls-0"></path>
<text dominant-baseline="central" text-anchor="end" style="font-size:12px;font-family:sans-serif;" transform="translate(59.2793 741.45)" fill="#6E7079">0</text>
<text dominant-baseline="central" text-anchor="end" style="font-size:12px;font-family:sans-serif;" transform="translate(59.2793 627.875)" fill="#6E7079">500</text>
<text dominant-baseline="central" text-anchor="end" style="font-size:12px;font-family:sans-serif;" transform="translate(59.2793 514.3)" fill="#6E7079">1,000</text>
<text dominant-baseline="central" text-anchor="end" style="font-size:12px;font-family:sans-serif;" transform="translate(59.2793 400.725)" fill="#6E7079">1,500</text>
<text dominant-baseline="central" text-anchor="end" style="font-size:12px;font-family:sans-serif;" transform="translate(59.2793 287.15)" fill="#6E7079">2,000</text>
<text dominant-baseline="central" text-anchor="end" style="font-size:12px;font-family:sans-serif;" transform="translate(59.2793 173.575)" fill="#6E7079">2,500</text>
<text dominant-baseline="central" text-anchor="end" style="font-size:12px;font-family:sans-serif;" transform="translate(59.2793 60)" fill="#6E7079">3,000</text>
<text dominant-baseline="central" text-anchor="middle" style="font-size:12px;font-family:sans-serif;" y="6" transform="translate(67.2793 749.45)" fill="#6E7079">Mon</text>
<text dominant-baseline="central" text-anchor="middle" style="font-size:12px;font-family:sans-serif;" y="6" transform="translate(212.0661 749.45)" fill="#6E7079">Tue</text>
<text dominant-baseline="central" text-anchor="middle" style="font-size:12px;font-family:sans-serif;" y="6" transform="translate(356.8529 749.45)" fill="#6E7079">Wed</text>
<text dominant-baseline="central" text-anchor="middle" style="font-size:12px;font-family:sans-serif;" y="6" transform="translate(501.6396 749.45)" fill="#6E7079">Thu</text>
<text dominant-baseline="central" text-anchor="middle" style="font-size:12px;font-family:sans-serif;" y="6" transform="translate(646.4264 749.45)" fill="#6E7079">Fri</text>
<text dominant-baseline="central" text-anchor="middle" style="font-size:12px;font-family:sans-serif;" y="6" transform="translate(791.2132 749.45)" fill="#6E7079">Sat</text>
<text dominant-baseline="central" text-anchor="middle" style="font-size:12px;font-family:sans-serif;" y="6" transform="translate(936 749.45)" fill="#6E7079">Sun</text>
<g clip-path="url(#zr0-c0)">
<path d="M67.2793 714.192L212.0661 711.4662L356.8529 718.5079L501.6396 711.0119L646.4265 721.0065L791.2132 689.2055L936 693.7485L936 741.45L791.2132 741.45L646.4265 741.45L501.6396 741.45L356.8529 741.45L212.0661 741.45L67.2793 741.45Z" fill="rgb(84,112,198)" fill-opacity="0.7" class="zr0-cls-2"></path>
</g>
<g clip-path="url(#zr0-c1)">
<path d="M67.2793 664.219L212.0661 670.1249L356.8529 675.1222L501.6396 657.8588L646.4265 655.133L791.2132 614.246L936 623.332L936 693.7485L791.2132 689.2055L646.4265 721.0065L501.6396 711.0119L356.8529 718.5079L212.0661 711.4662L67.2793 714.192Z" fill="rgb(145,204,117)" fill-opacity="0.7" class="zr0-cls-3"></path>
</g>
<g clip-path="url(#zr0-c2)">
<path d="M67.2793 630.1465L212.0661 617.4261L356.8529 629.465L501.6396 622.8777L646.4265 611.9745L791.2132 539.2865L936 530.2005L936 623.332L791.2132 614.246L646.4265 655.133L501.6396 657.8588L356.8529 675.1222L212.0661 670.1249L67.2793 664.219Z" fill="rgb(250,200,88)" fill-opacity="0.7" class="zr0-cls-4"></path>
</g>
<g clip-path="url(#zr0-c3)">
<path d="M67.2793 557.4585L212.0661 542.0123L356.8529 561.0929L501.6396 547.0096L646.4265 523.386L791.2132 464.327L936 457.5125L936 530.2005L791.2132 539.2865L646.4265 611.9745L501.6396 622.8777L356.8529 629.465L212.0661 617.4261L67.2793 630.1465Z" fill="rgb(238,102,102)" fill-opacity="0.7" class="zr0-cls-5"></path>
</g>
<g clip-path="url(#zr0-c4)">
<path d="M67.2793 371.1955L212.0661 330.3085L356.8529 356.4308L501.6396 334.8515L646.4265 230.3625L791.2132 162.2175L936 157.6745L936 457.5125L791.2132 464.327L646.4265 523.386L501.6396 547.0096L356.8529 561.0929L212.0661 542.0123L67.2793 557.4585Z" fill="rgb(115,192,222)" fill-opacity="0.7" class="zr0-cls-6"></path>
</g>
<g clip-path="url(#zr0-c0)">
<path d="M67.2793 714.192L212.0661 711.4662L356.8529 718.5079L501.6396 711.0119L646.4265 721.0065L791.2132 689.2055L936 693.7485" fill="none" stroke="rgb(84,112,198)" stroke-width="2" stroke-linejoin="bevel" class="zr0-cls-7"></path>
</g>
<g clip-path="url(#zr0-c1)">
<path d="M67.2793 664.219L212.0661 670.1249L356.8529 675.1222L501.6396 657.8588L646.4265 655.133L791.2132 614.246L936 623.332" fill="none" stroke="rgb(145,204,117)" stroke-width="2" stroke-linejoin="bevel" class="zr0-cls-7"></path>
</g>
<g clip-path="url(#zr0-c2)">
<path d="M67.2793 630.1465L212.0661 617.4261L356.8529 629.465L501.6396 622.8777L646.4265 611.9745L791.2132 539.2865L936 530.2005" fill="none" stroke="rgb(250,200,88)" stroke-width="2" stroke-linejoin="bevel" class="zr0-cls-7"></path>
</g>
<g clip-path="url(#zr0-c3)">
<path d="M67.2793 557.4585L212.0661 542.0123L356.8529 561.0929L501.6396 547.0096L646.4265 523.386L791.2132 464.327L936 457.5125" fill="none" stroke="rgb(238,102,102)" stroke-width="2" stroke-linejoin="bevel" class="zr0-cls-7"></path>
</g>
<g clip-path="url(#zr0-c4)">
<path d="M67.2793 371.1955L212.0661 330.3085L356.8529 356.4308L501.6396 334.8515L646.4265 230.3625L791.2132 162.2175L936 157.6745" fill="none" stroke="rgb(115,192,222)" stroke-width="2" stroke-linejoin="bevel" class="zr0-cls-7"></path>
</g>
<path d="M1 0A1 1 0 1 1 1 -0.0001" transform="matrix(2,0,0,2,67.2793,714.192)" fill="rgb(255,255,255)" stroke="#5470c6" class="zr0-cls-8"></path>
<path d="M1 0A1 1 0 1 1 1 -0.0001" transform="matrix(2,0,0,2,212.0661,711.4662)" fill="#fff" stroke="#5470c6" class="zr0-cls-8"></path>
<path d="M1 0A1 1 0 1 1 1 -0.0001" transform="matrix(2,0,0,2,356.8529,718.5079)" fill="#fff" stroke="#5470c6" class="zr0-cls-8"></path>
<path d="M1 0A1 1 0 1 1 1 -0.0001" transform="matrix(2,0,0,2,501.6396,711.0119)" fill="#fff" stroke="#5470c6" class="zr0-cls-8"></path>
<path d="M1 0A1 1 0 1 1 1 -0.0001" transform="matrix(2,0,0,2,646.4265,721.0065)" fill="#fff" stroke="#5470c6" class="zr0-cls-8"></path>
<path d="M1 0A1 1 0 1 1 1 -0.0001" transform="matrix(2,0,0,2,791.2132,689.2055)" fill="#fff" stroke="#5470c6" class="zr0-cls-8"></path>
<path d="M1 0A1 1 0 1 1 1 -0.0001" transform="matrix(2,0,0,2,936,693.7485)" fill="#fff" stroke="#5470c6" class="zr0-cls-8"></path>
<path d="M1 0A1 1 0 1 1 1 -0.0001" transform="matrix(2,0,0,2,67.2793,664.219)" fill="rgb(255,255,255)" stroke="#91cc75" class="zr0-cls-8"></path>
<path d="M1 0A1 1 0 1 1 1 -0.0001" transform="matrix(2,0,0,2,212.0661,670.1249)" fill="#fff" stroke="#91cc75" class="zr0-cls-8"></path>
<path d="M1 0A1 1 0 1 1 1 -0.0001" transform="matrix(2,0,0,2,356.8529,675.1222)" fill="#fff" stroke="#91cc75" class="zr0-cls-8"></path>
<path d="M1 0A1 1 0 1 1 1 -0.0001" transform="matrix(2,0,0,2,501.6396,657.8588)" fill="#fff" stroke="#91cc75" class="zr0-cls-8"></path>
<path d="M1 0A1 1 0 1 1 1 -0.0001" transform="matrix(2,0,0,2,646.4265,655.133)" fill="#fff" stroke="#91cc75" class="zr0-cls-8"></path>
<path d="M1 0A1 1 0 1 1 1 -0.0001" transform="matrix(2,0,0,2,791.2132,614.246)" fill="#fff" stroke="#91cc75" class="zr0-cls-8"></path>
<path d="M1 0A1 1 0 1 1 1 -0.0001" transform="matrix(2,0,0,2,936,623.332)" fill="#fff" stroke="#91cc75" class="zr0-cls-8"></path>
<path d="M1 0A1 1 0 1 1 1 -0.0001" transform="matrix(2,0,0,2,67.2793,630.1465)" fill="rgb(255,255,255)" stroke="#fac858" class="zr0-cls-8"></path>
<path d="M1 0A1 1 0 1 1 1 -0.0001" transform="matrix(2,0,0,2,212.0661,617.4261)" fill="#fff" stroke="#fac858" class="zr0-cls-8"></path>
<path d="M1 0A1 1 0 1 1 1 -0.0001" transform="matrix(2,0,0,2,356.8529,629.465)" fill="#fff" stroke="#fac858" class="zr0-cls-8"></path>
<path d="M1 0A1 1 0 1 1 1 -0.0001" transform="matrix(2,0,0,2,501.6396,622.8777)" fill="#fff" stroke="#fac858" class="zr0-cls-8"></path>
<path d="M1 0A1 1 0 1 1 1 -0.0001" transform="matrix(2,0,0,2,646.4265,611.9745)" fill="#fff" stroke="#fac858" class="zr0-cls-8"></path>
<path d="M1 0A1 1 0 1 1 1 -0.0001" transform="matrix(2,0,0,2,791.2132,539.2865)" fill="#fff" stroke="#fac858" class="zr0-cls-8"></path>
<path d="M1 0A1 1 0 1 1 1 -0.0001" transform="matrix(2,0,0,2,936,530.2005)" fill="#fff" stroke="#fac858" class="zr0-cls-8"></path>
<path d="M1 0A1 1 0 1 1 1 -0.0001" transform="matrix(2,0,0,2,67.2793,557.4585)" fill="rgb(255,255,255)" stroke="#ee6666" class="zr0-cls-8"></path>
<path d="M1 0A1 1 0 1 1 1 -0.0001" transform="matrix(2,0,0,2,212.0661,542.0123)" fill="#fff" stroke="#ee6666" class="zr0-cls-8"></path>
<path d="M1 0A1 1 0 1 1 1 -0.0001" transform="matrix(2,0,0,2,356.8529,561.0929)" fill="#fff" stroke="#ee6666" class="zr0-cls-8"></path>
<path d="M1 0A1 1 0 1 1 1 -0.0001" transform="matrix(2,0,0,2,501.6396,547.0096)" fill="#fff" stroke="#ee6666" class="zr0-cls-8"></path>
<path d="M1 0A1 1 0 1 1 1 -0.0001" transform="matrix(2,0,0,2,646.4265,523.386)" fill="#fff" stroke="#ee6666" class="zr0-cls-8"></path>
<path d="M1 0A1 1 0 1 1 1 -0.0001" transform="matrix(2,0,0,2,791.2132,464.327)" fill="#fff" stroke="#ee6666" class="zr0-cls-8"></path>
<path d="M1 0A1 1 0 1 1 1 -0.0001" transform="matrix(2,0,0,2,936,457.5125)" fill="#fff" stroke="#ee6666" class="zr0-cls-8"></path>
<path d="M1 0A1 1 0 1 1 1 -0.0001" transform="matrix(2,0,0,2,67.2793,371.1955)" fill="rgb(255,255,255)" stroke="#73c0de" class="zr0-cls-8"></path>
<path d="M1 0A1 1 0 1 1 1 -0.0001" transform="matrix(2,0,0,2,212.0661,330.3085)" fill="#fff" stroke="#73c0de" class="zr0-cls-8"></path>
<path d="M1 0A1 1 0 1 1 1 -0.0001" transform="matrix(2,0,0,2,356.8529,356.4308)" fill="#fff" stroke="#73c0de" class="zr0-cls-8"></path>
<path d="M1 0A1 1 0 1 1 1 -0.0001" transform="matrix(2,0,0,2,501.6396,334.8515)" fill="#fff" stroke="#73c0de" class="zr0-cls-8"></path>
<path d="M1 0A1 1 0 1 1 1 -0.0001" transform="matrix(2,0,0,2,646.4265,230.3625)" fill="#fff" stroke="#73c0de" class="zr0-cls-8"></path>
<path d="M1 0A1 1 0 1 1 1 -0.0001" transform="matrix(2,0,0,2,791.2132,162.2175)" fill="#fff" stroke="#73c0de" class="zr0-cls-8"></path>
<path d="M1 0A1 1 0 1 1 1 -0.0001" transform="matrix(2,0,0,2,936,157.6745)" fill="#fff" stroke="#73c0de" class="zr0-cls-8"></path>
<text dominant-baseline="central" text-anchor="middle" style="font-size:12px;font-family:sans-serif;" y="-6" transform="translate(67.2793 363.1955)" fill="#333" stroke="rgb(255,255,255)" stroke-width="2" paint-order="stroke" stroke-miterlimit="2">820</text>
<text dominant-baseline="central" text-anchor="middle" style="font-size:12px;font-family:sans-serif;" y="-6" transform="translate(212.0661 322.3085)" fill="#333" stroke="rgb(255,255,255)" stroke-width="2" paint-order="stroke" stroke-miterlimit="2">932</text>
<text dominant-baseline="central" text-anchor="middle" style="font-size:12px;font-family:sans-serif;" y="-6" transform="translate(356.8529 348.4308)" fill="#333" stroke="rgb(255,255,255)" stroke-width="2" paint-order="stroke" stroke-miterlimit="2">901</text>
<text dominant-baseline="central" text-anchor="middle" style="font-size:12px;font-family:sans-serif;" y="-6" transform="translate(501.6396 326.8515)" fill="#333" stroke="rgb(255,255,255)" stroke-width="2" paint-order="stroke" stroke-miterlimit="2">934</text>
<text dominant-baseline="central" text-anchor="middle" style="font-size:12px;font-family:sans-serif;" y="-6" transform="translate(646.4265 222.3625)" fill="#333" stroke="rgb(255,255,255)" stroke-width="2" paint-order="stroke" stroke-miterlimit="2">1290</text>
<text dominant-baseline="central" text-anchor="middle" style="font-size:12px;font-family:sans-serif;" y="-6" transform="translate(791.2132 154.2175)" fill="#333" stroke="rgb(255,255,255)" stroke-width="2" paint-order="stroke" stroke-miterlimit="2">1330</text>
<text dominant-baseline="central" text-anchor="middle" style="font-size:12px;font-family:sans-serif;" y="-6" transform="translate(936 149.6745)" fill="#333" stroke="rgb(255,255,255)" stroke-width="2" paint-order="stroke" stroke-miterlimit="2">1320</text>
<path d="M-5 -5l454.9199 0l0 23.2l-454.9199 0Z" transform="translate(265.04 5)" fill="rgb(0,0,0)" fill-opacity="0" stroke="#ccc" stroke-width="0" class="zr0-cls-0"></path>
<path d="M0 7L25 7" transform="translate(266.04 4.6)" fill="#000" stroke="#5470c6" stroke-width="2" stroke-linecap="butt" stroke-miterlimit="10" class="zr0-cls-0"></path>
<path d="M18.1 7A5.6 5.6 0 1 1 18.1 6.9994" transform="translate(266.04 4.6)" fill="#fff" stroke="#5470c6" stroke-width="2" stroke-linecap="butt" stroke-miterlimit="10" class="zr0-cls-0"></path>
<text dominant-baseline="central" text-anchor="start" style="font-size:12px;font-family:sans-serif;" x="30" y="7" transform="translate(266.04 4.6)" fill="#333">Email</text>
<path d="M-1 0.4l61.0059 0l0 13.2l-61.0059 0Z" transform="translate(266.04 4.6)" fill="none" class="zr0-cls-9"></path>
<path d="M0 7L25 7" transform="translate(337.0459 4.6)" fill="#000" stroke="#91cc75" stroke-width="2" stroke-linecap="butt" stroke-miterlimit="10" class="zr0-cls-0"></path>
<path d="M18.1 7A5.6 5.6 0 1 1 18.1 6.9994" transform="translate(337.0459 4.6)" fill="#fff" stroke="#91cc75" stroke-width="2" stroke-linecap="butt" stroke-miterlimit="10" class="zr0-cls-0"></path>
<text dominant-baseline="central" text-anchor="start" style="font-size:12px;font-family:sans-serif;" xml:space="preserve" x="30" y="7" transform="translate(337.0459 4.6)" fill="#333">Union Ads</text>
<path d="M-1 0.4l86.3652 0l0 13.2l-86.3652 0Z" transform="translate(337.0459 4.6)" fill="none" class="zr0-cls-9"></path>
<path d="M0 7L25 7" transform="translate(433.4111 4.6)" fill="#000" stroke="#fac858" stroke-width="2" stroke-linecap="butt" stroke-miterlimit="10" class="zr0-cls-0"></path>
<path d="M18.1 7A5.6 5.6 0 1 1 18.1 6.9994" transform="translate(433.4111 4.6)" fill="#fff" stroke="#fac858" stroke-width="2" stroke-linecap="butt" stroke-miterlimit="10" class="zr0-cls-0"></path>
<text dominant-baseline="central" text-anchor="start" style="font-size:12px;font-family:sans-serif;" xml:space="preserve" x="30" y="7" transform="translate(433.4111 4.6)" fill="#333">Video Ads</text>
<path d="M-1 0.4l85.4922 0l0 13.2l-85.4922 0Z" transform="translate(433.4111 4.6)" fill="none" class="zr0-cls-9"></path>
<path d="M0 7L25 7" transform="translate(528.9033 4.6)" fill="#000" stroke="#ee6666" stroke-width="2" stroke-linecap="butt" stroke-miterlimit="10" class="zr0-cls-0"></path>
<path d="M18.1 7A5.6 5.6 0 1 1 18.1 6.9994" transform="translate(528.9033 4.6)" fill="#fff" stroke="#ee6666" stroke-width="2" stroke-linecap="butt" stroke-miterlimit="10" class="zr0-cls-0"></path>
<text dominant-baseline="central" text-anchor="start" style="font-size:12px;font-family:sans-serif;" x="30" y="7" transform="translate(528.9033 4.6)" fill="#333">Direct</text>
<path d="M-1 0.4l62.3359 0l0 13.2l-62.3359 0Z" transform="translate(528.9033 4.6)" fill="none" class="zr0-cls-9"></path>
<path d="M0 7L25 7" transform="translate(601.2393 4.6)" fill="#000" stroke="#73c0de" stroke-width="2" stroke-linecap="butt" stroke-miterlimit="10" class="zr0-cls-0"></path>
<path d="M18.1 7A5.6 5.6 0 1 1 18.1 6.9994" transform="translate(601.2393 4.6)" fill="#fff" stroke="#73c0de" stroke-width="2" stroke-linecap="butt" stroke-miterlimit="10" class="zr0-cls-0"></path>
<text dominant-baseline="central" text-anchor="start" style="font-size:12px;font-family:sans-serif;" xml:space="preserve" x="30" y="7" transform="translate(601.2393 4.6)" fill="#333">Search Engine</text>
<path d="M-1 0.4l109.7207 0l0 13.2l-109.7207 0Z" transform="translate(601.2393 4.6)" fill="none" class="zr0-cls-9"></path>
<path d="M-5 -5l176.0693 0l0 28l-176.0693 0Z" transform="translate(5 5)" fill="rgb(0,0,0)" fill-opacity="0" stroke="#ccc" stroke-width="0" class="zr0-cls-0"></path>
<text dominant-baseline="central" text-anchor="start" style="font-size:18px;font-family:sans-serif;font-weight:bold;" xml:space="preserve" y="9" transform="translate(5 5)" fill="#464646">Stacked Area Chart</text>
<defs >
<clipPath id="zr0-c0">
<path d="M66 59l872 0l0 683.45l-872 0Z" fill="#000" class="zr0-cls-1"></path>
</clipPath>
<clipPath id="zr0-c1">
<path d="M66 59l872 0l0 683.45l-872 0Z" fill="#000" class="zr0-cls-1"></path>
</clipPath>
<clipPath id="zr0-c2">
<path d="M66 59l872 0l0 683.45l-872 0Z" fill="#000" class="zr0-cls-1"></path>
</clipPath>
<clipPath id="zr0-c3">
<path d="M66 59l872 0l0 683.45l-872 0Z" fill="#000" class="zr0-cls-1"></path>
</clipPath>
<clipPath id="zr0-c4">
<path d="M66 59l872 0l0 683.45l-872 0Z" fill="#000" class="zr0-cls-1"></path>
</clipPath>
</defs>
</svg>